<mxfile host="app.diagrams.net" modified="2023-02-03T11:55:39.659Z" agent="5.0 (Windows NT 10.0; Win64; x64) AppleWebKit/537.36 (KHTML, like Gecko) Chrome/109.0.0.0 Safari/537.36" etag="mXvNGw4v5RCBkDYq7LB9" version="20.8.14" type="github">
  <diagram name="第 1 页" id="dETpvl7YbOIHGd4mTYvR">
    <mxGraphModel dx="1050" dy="525" grid="1" gridSize="10" guides="1" tooltips="1" connect="1" arrows="1" fold="1" page="1" pageScale="1" pageWidth="827" pageHeight="1169" math="0" shadow="0">
      <root>
        <mxCell id="0" />
        <mxCell id="1" parent="0" />
        <mxCell id="4rnODzFGi7fGPOygyib4-20" style="edgeStyle=orthogonalEdgeStyle;rounded=0;orthogonalLoop=1;jettySize=auto;html=1;entryX=0.25;entryY=0;entryDx=0;entryDy=0;exitX=0.25;exitY=1;exitDx=0;exitDy=0;dashed=1;" edge="1" parent="1" source="4rnODzFGi7fGPOygyib4-3" target="4rnODzFGi7fGPOygyib4-19">
          <mxGeometry relative="1" as="geometry" />
        </mxCell>
        <mxCell id="4rnODzFGi7fGPOygyib4-21" value="" style="edgeStyle=orthogonalEdgeStyle;rounded=0;orthogonalLoop=1;jettySize=auto;html=1;exitX=0.75;exitY=1;exitDx=0;exitDy=0;entryX=0.75;entryY=0;entryDx=0;entryDy=0;" edge="1" parent="1" source="4rnODzFGi7fGPOygyib4-3" target="4rnODzFGi7fGPOygyib4-19">
          <mxGeometry relative="1" as="geometry" />
        </mxCell>
        <mxCell id="4rnODzFGi7fGPOygyib4-3" value="网关" style="rounded=1;whiteSpace=wrap;html=1;fillColor=#dae8fc;strokeColor=#6c8ebf;" vertex="1" parent="1">
          <mxGeometry x="300" y="210" width="120" height="60" as="geometry" />
        </mxCell>
        <mxCell id="4rnODzFGi7fGPOygyib4-9" value="" style="endArrow=classic;html=1;rounded=0;entryX=0.25;entryY=0;entryDx=0;entryDy=0;startArrow=none;dashed=1;" edge="1" parent="1" target="4rnODzFGi7fGPOygyib4-3">
          <mxGeometry width="50" height="50" relative="1" as="geometry">
            <mxPoint x="330" y="150" as="sourcePoint" />
            <mxPoint x="370" y="130" as="targetPoint" />
          </mxGeometry>
        </mxCell>
        <mxCell id="4rnODzFGi7fGPOygyib4-10" value="流量" style="text;html=1;strokeColor=none;fillColor=none;align=center;verticalAlign=middle;whiteSpace=wrap;rounded=0;" vertex="1" parent="1">
          <mxGeometry x="330" y="110" width="60" height="30" as="geometry" />
        </mxCell>
        <mxCell id="4rnODzFGi7fGPOygyib4-13" value="" style="endArrow=classic;html=1;rounded=0;exitX=0.5;exitY=1;exitDx=0;exitDy=0;dashed=1;" edge="1" parent="1">
          <mxGeometry width="50" height="50" relative="1" as="geometry">
            <mxPoint x="140" y="134.5" as="sourcePoint" />
            <mxPoint x="200" y="134.5" as="targetPoint" />
          </mxGeometry>
        </mxCell>
        <mxCell id="4rnODzFGi7fGPOygyib4-14" value="活动流量" style="text;html=1;strokeColor=none;fillColor=none;align=center;verticalAlign=middle;whiteSpace=wrap;rounded=0;" vertex="1" parent="1">
          <mxGeometry x="200" y="120" width="60" height="30" as="geometry" />
        </mxCell>
        <mxCell id="4rnODzFGi7fGPOygyib4-15" value="" style="endArrow=classic;html=1;rounded=0;exitX=0.5;exitY=1;exitDx=0;exitDy=0;" edge="1" parent="1">
          <mxGeometry width="50" height="50" relative="1" as="geometry">
            <mxPoint x="140" y="154.5" as="sourcePoint" />
            <mxPoint x="200" y="154.5" as="targetPoint" />
          </mxGeometry>
        </mxCell>
        <mxCell id="4rnODzFGi7fGPOygyib4-16" value="非活动流量" style="text;html=1;strokeColor=none;fillColor=none;align=center;verticalAlign=middle;whiteSpace=wrap;rounded=0;" vertex="1" parent="1">
          <mxGeometry x="200" y="140" width="70" height="30" as="geometry" />
        </mxCell>
        <mxCell id="4rnODzFGi7fGPOygyib4-19" value="服务" style="rounded=1;whiteSpace=wrap;html=1;fillColor=#fff2cc;strokeColor=#d6b656;" vertex="1" parent="1">
          <mxGeometry x="300" y="330" width="120" height="60" as="geometry" />
        </mxCell>
        <mxCell id="4rnODzFGi7fGPOygyib4-22" value="" style="pointerEvents=1;verticalLabelPosition=bottom;shadow=0;dashed=0;align=center;html=1;verticalAlign=top;shape=mxgraph.electrical.electro-mechanical.limitSwitch2;elSwitchState=off;" vertex="1" parent="1">
          <mxGeometry x="300" y="180" width="50" height="10" as="geometry" />
        </mxCell>
        <mxCell id="4rnODzFGi7fGPOygyib4-24" value="" style="pointerEvents=1;verticalLabelPosition=bottom;shadow=0;dashed=0;align=center;html=1;verticalAlign=top;shape=mxgraph.electrical.electro-mechanical.limitSwitch2;elSwitchState=off;" vertex="1" parent="1">
          <mxGeometry x="364" y="180" width="50" height="10" as="geometry" />
        </mxCell>
        <mxCell id="4rnODzFGi7fGPOygyib4-26" value="" style="endArrow=classic;html=1;rounded=0;entryX=0.75;entryY=0;entryDx=0;entryDy=0;startArrow=none;" edge="1" parent="1" target="4rnODzFGi7fGPOygyib4-3">
          <mxGeometry width="50" height="50" relative="1" as="geometry">
            <mxPoint x="390" y="150" as="sourcePoint" />
            <mxPoint x="370" y="220" as="targetPoint" />
          </mxGeometry>
        </mxCell>
        <mxCell id="4rnODzFGi7fGPOygyib4-31" value="" style="pointerEvents=1;verticalLabelPosition=bottom;shadow=0;dashed=0;align=center;html=1;verticalAlign=top;shape=mxgraph.electrical.electro-mechanical.limitSwitch2;elSwitchState=off;" vertex="1" parent="1">
          <mxGeometry x="140" y="170" width="50" height="10" as="geometry" />
        </mxCell>
        <mxCell id="4rnODzFGi7fGPOygyib4-33" value="限流" style="text;html=1;strokeColor=none;fillColor=none;align=center;verticalAlign=middle;whiteSpace=wrap;rounded=0;" vertex="1" parent="1">
          <mxGeometry x="200" y="160" width="40" height="30" as="geometry" />
        </mxCell>
      </root>
    </mxGraphModel>
  </diagram>
</mxfile>
